# MagicaVoxel @ Ephtracy

# group
o 

# material
mtllib bat body.mtl
usemtl palette

# normals
vn -1 0 0
vn 1 0 0
vn 0 0 1
vn 0 0 -1
vn 0 -1 0
vn 0 1 0

# texcoords
vt 0.00195312 0.5
vt 0.00976562 0.5

# verts
v -0.1 0 0
v -0.1 0 -0.1
v -0.1 0.3 0.1
v -0.1 0.3 0
v -0.1 0.3 -0.1
v -0.1 0.7 0.1
v -0.1 0.7 -0.1
v 0 0.2 0.1
v 0 0.2 0
v 0 0.3 0.1
v 0 0.3 0
v 0.1 0 0
v 0.1 0 -0.1
v 0.1 0.1 0
v 0.1 0.1 -0.1
v 0 0 0
v 0 0 -0.1
v 0 0.1 0
v 0 0.1 -0.1
v 0.1 0.2 0.1
v 0.1 0.2 0
v 0.1 0.3 0.1
v 0.1 0.3 0
v 0.2 0 0
v 0.2 0 -0.1
v 0.2 0.3 0.1
v 0.2 0.3 0
v 0.2 0.3 -0.1
v 0.2 0.7 0.1
v 0.2 0.7 -0.1
v -0.1 0.3 0.1
v -0.1 0.7 0.1
v 0 0.2 0.1
v 0 0.3 0.1
v 0.1 0.2 0.1
v 0.1 0.3 0.1
v 0.2 0.3 0.1
v 0.2 0.7 0.1
v -0.1 0 0
v -0.1 0.3 0
v 0 0 0
v 0 0.1 0
v 0 0.2 0
v 0 0.3 0
v 0.1 0 0
v 0.1 0.1 0
v 0.1 0.2 0
v 0.1 0.3 0
v 0.2 0 0
v 0.2 0.3 0
v -0.1 0 -0.1
v -0.1 0.3 -0.1
v -0.1 0.7 -0.1
v 0 0 -0.1
v 0 0.1 -0.1
v 0 0.2 -0.1
v 0 0.3 -0.1
v 0.1 0 -0.1
v 0.1 0.1 -0.1
v 0.1 0.2 -0.1
v 0.1 0.3 -0.1
v 0.2 0 -0.1
v 0.2 0.3 -0.1
v 0.2 0.7 -0.1
v -0.1 0 0
v 0 0 0
v 0.1 0 0
v 0.2 0 0
v -0.1 0 -0.1
v 0 0 -0.1
v 0.1 0 -0.1
v 0.2 0 -0.1
v 0 0.1 0
v 0.1 0.1 0
v 0 0.1 -0.1
v 0.1 0.1 -0.1
v 0 0.2 0.1
v 0.1 0.2 0.1
v 0 0.2 0
v 0.1 0.2 0
v -0.1 0.3 0.1
v 0 0.3 0.1
v 0.1 0.3 0.1
v 0.2 0.3 0.1
v -0.1 0.3 0
v 0 0.3 0
v 0.1 0.3 0
v 0.2 0.3 0
v -0.1 0.7 0.1
v 0.2 0.7 0.1
v -0.1 0.7 -0.1
v 0.2 0.7 -0.1

# faces
f 4/2/1 2/2/1 1/2/1
f 5/2/1 2/2/1 4/2/1
f 6/1/1 4/1/1 3/1/1
f 6/1/1 5/1/1 4/1/1
f 7/1/1 5/1/1 6/1/1
f 10/1/1 9/1/1 8/1/1
f 11/1/1 9/1/1 10/1/1
f 14/2/1 13/2/1 12/2/1
f 15/2/1 13/2/1 14/2/1
f 16/2/2 17/2/2 18/2/2
f 18/2/2 17/2/2 19/2/2
f 20/1/2 21/1/2 22/1/2
f 22/1/2 21/1/2 23/1/2
f 24/2/2 25/2/2 27/2/2
f 27/2/2 25/2/2 28/2/2
f 26/1/2 27/1/2 29/1/2
f 27/1/2 28/1/2 29/1/2
f 29/1/2 28/1/2 30/1/2
f 34/1/3 32/1/3 31/1/3
f 35/1/3 34/1/3 33/1/3
f 36/1/3 32/1/3 34/1/3
f 36/1/3 34/1/3 35/1/3
f 37/1/3 32/1/3 36/1/3
f 38/1/3 32/1/3 37/1/3
f 41/2/3 40/2/3 39/2/3
f 42/2/3 40/2/3 41/2/3
f 43/2/3 40/2/3 42/2/3
f 44/2/3 40/2/3 43/2/3
f 46/2/3 43/2/3 42/2/3
f 47/2/3 43/2/3 46/2/3
f 49/2/3 46/2/3 45/2/3
f 49/2/3 48/2/3 47/2/3
f 49/2/3 47/2/3 46/2/3
f 50/2/3 48/2/3 49/2/3
f 51/2/4 52/2/4 54/2/4
f 54/2/4 52/2/4 55/2/4
f 55/2/4 52/2/4 56/2/4
f 52/1/4 53/1/4 57/1/4
f 56/2/4 52/2/4 57/2/4
f 55/2/4 56/2/4 59/2/4
f 56/1/4 57/1/4 60/1/4
f 59/2/4 56/2/4 60/2/4
f 57/1/4 53/1/4 61/1/4
f 60/1/4 57/1/4 61/1/4
f 58/2/4 59/2/4 62/2/4
f 59/2/4 60/2/4 62/2/4
f 60/2/4 61/2/4 62/2/4
f 61/1/4 53/1/4 63/1/4
f 62/2/4 61/2/4 63/2/4
f 63/1/4 53/1/4 64/1/4
f 69/2/5 66/2/5 65/2/5
f 70/2/5 66/2/5 69/2/5
f 71/2/5 68/2/5 67/2/5
f 72/2/5 68/2/5 71/2/5
f 75/2/5 74/2/5 73/2/5
f 76/2/5 74/2/5 75/2/5
f 79/1/5 78/1/5 77/1/5
f 80/1/5 78/1/5 79/1/5
f 85/1/5 82/1/5 81/1/5
f 86/1/5 82/1/5 85/1/5
f 87/1/5 84/1/5 83/1/5
f 88/1/5 84/1/5 87/1/5
f 89/1/6 90/1/6 91/1/6
f 91/1/6 90/1/6 92/1/6
