# MagicaVoxel @ Ephtracy

# group
o 

# material
mtllib wooden plate.mtl
usemtl palette

# normals
vn -1 0 0
vn 1 0 0
vn 0 0 1
vn 0 0 -1
vn 0 -1 0
vn 0 1 0

# texcoords
vt 0.00195312 0.5
vt 0.00585938 0.5
vt 0.0136719 0.5
vt 0.0175781 0.5

# verts
v -1.1 0 0.3
v -1.1 0 0.2
v -1.1 0 0.1
v -1.1 0 -0.1
v -1.1 0 -0.2
v -1.1 0 -0.3
v -1.1 0.1 0.2
v -1.1 0.1 0.1
v -1.1 0.1 -0.1
v -1.1 0.1 -0.2
v -1.1 0.2 0.3
v -1.1 0.2 -0.3
v 1.1 0 0.3
v 1.1 0 0.2
v 1.1 0 0.1
v 1.1 0 -0.1
v 1.1 0 -0.2
v 1.1 0 -0.3
v 1.1 0.1 0.2
v 1.1 0.1 0.1
v 1.1 0.1 -0.1
v 1.1 0.1 -0.2
v 1.1 0.2 0.3
v 1.1 0.2 -0.3
v -1.1 0 0.3
v -1.1 0.2 0.3
v -1 0 0.3
v -1 0.2 0.3
v 1 0 0.3
v 1 0.2 0.3
v 1.1 0 0.3
v 1.1 0.2 0.3
v -1.1 0 -0.3
v -1.1 0.2 -0.3
v -1 0 -0.3
v -1 0.2 -0.3
v 1 0 -0.3
v 1 0.2 -0.3
v 1.1 0 -0.3
v 1.1 0.2 -0.3
v -1.1 0 0.3
v -1 0 0.3
v 1 0 0.3
v 1.1 0 0.3
v -1.1 0 0.2
v -1 0 0.2
v 1 0 0.2
v 1.1 0 0.2
v -1.1 0 0.1
v -1 0 0.1
v 1 0 0.1
v 1.1 0 0.1
v -1.1 0 -0.1
v -1 0 -0.1
v 1 0 -0.1
v 1.1 0 -0.1
v -1.1 0 -0.2
v -1 0 -0.2
v 1 0 -0.2
v 1.1 0 -0.2
v -1.1 0 -0.3
v -1 0 -0.3
v 1 0 -0.3
v 1.1 0 -0.3
v -1.1 0.2 0.3
v -1 0.2 0.3
v 1 0.2 0.3
v 1.1 0.2 0.3
v -1 0.2 0.2
v 1 0.2 0.2
v -1 0.2 0.1
v 1 0.2 0.1
v -1 0.2 -0.1
v 1 0.2 -0.1
v -1 0.2 -0.2
v 1 0.2 -0.2
v -1.1 0.2 -0.3
v -1 0.2 -0.3
v 1 0.2 -0.3
v 1.1 0.2 -0.3

# faces
f 7/4/1 2/4/1 1/4/1
f 7/2/1 3/2/1 2/2/1
f 8/4/1 4/4/1 3/4/1
f 8/2/1 3/2/1 7/2/1
f 9/2/1 5/2/1 4/2/1
f 9/4/1 4/4/1 8/4/1
f 10/4/1 6/4/1 5/4/1
f 10/2/1 5/2/1 9/2/1
f 11/4/1 9/4/1 8/4/1
f 11/4/1 8/4/1 7/4/1
f 11/4/1 10/4/1 9/4/1
f 11/4/1 7/4/1 1/4/1
f 12/4/1 6/4/1 10/4/1
f 12/4/1 10/4/1 11/4/1
f 13/4/2 14/4/2 19/4/2
f 14/2/2 15/2/2 19/2/2
f 15/4/2 16/4/2 20/4/2
f 19/2/2 15/2/2 20/2/2
f 16/2/2 17/2/2 21/2/2
f 20/4/2 16/4/2 21/4/2
f 17/4/2 18/4/2 22/4/2
f 21/2/2 17/2/2 22/2/2
f 20/4/2 21/4/2 23/4/2
f 19/4/2 20/4/2 23/4/2
f 21/4/2 22/4/2 23/4/2
f 13/4/2 19/4/2 23/4/2
f 22/4/2 18/4/2 24/4/2
f 23/4/2 22/4/2 24/4/2
f 27/4/3 26/4/3 25/4/3
f 28/4/3 26/4/3 27/4/3
f 29/3/3 28/3/3 27/3/3
f 30/3/3 28/3/3 29/3/3
f 31/4/3 30/4/3 29/4/3
f 32/4/3 30/4/3 31/4/3
f 33/4/4 34/4/4 35/4/4
f 35/4/4 34/4/4 36/4/4
f 35/3/4 36/3/4 37/3/4
f 37/3/4 36/3/4 38/3/4
f 37/4/4 38/4/4 39/4/4
f 39/4/4 38/4/4 40/4/4
f 45/4/5 42/4/5 41/4/5
f 46/3/5 43/3/5 42/3/5
f 46/4/5 42/4/5 45/4/5
f 47/4/5 44/4/5 43/4/5
f 47/3/5 43/3/5 46/3/5
f 48/4/5 44/4/5 47/4/5
f 49/2/5 46/2/5 45/2/5
f 50/1/5 47/1/5 46/1/5
f 50/2/5 46/2/5 49/2/5
f 51/2/5 48/2/5 47/2/5
f 51/1/5 47/1/5 50/1/5
f 52/2/5 48/2/5 51/2/5
f 53/4/5 50/4/5 49/4/5
f 54/3/5 51/3/5 50/3/5
f 54/4/5 50/4/5 53/4/5
f 55/4/5 52/4/5 51/4/5
f 55/3/5 51/3/5 54/3/5
f 56/4/5 52/4/5 55/4/5
f 57/2/5 54/2/5 53/2/5
f 58/1/5 55/1/5 54/1/5
f 58/2/5 54/2/5 57/2/5
f 59/2/5 56/2/5 55/2/5
f 59/1/5 55/1/5 58/1/5
f 60/2/5 56/2/5 59/2/5
f 61/4/5 58/4/5 57/4/5
f 62/3/5 59/3/5 58/3/5
f 62/4/5 58/4/5 61/4/5
f 63/4/5 60/4/5 59/4/5
f 63/3/5 59/3/5 62/3/5
f 64/4/5 60/4/5 63/4/5
f 65/4/6 66/4/6 69/4/6
f 66/3/6 67/3/6 69/3/6
f 67/4/6 68/4/6 70/4/6
f 69/3/6 67/3/6 70/3/6
f 65/4/6 69/4/6 71/4/6
f 69/1/6 70/1/6 71/1/6
f 70/4/6 68/4/6 72/4/6
f 71/1/6 70/1/6 72/1/6
f 65/4/6 71/4/6 73/4/6
f 71/3/6 72/3/6 73/3/6
f 72/4/6 68/4/6 74/4/6
f 73/3/6 72/3/6 74/3/6
f 65/4/6 73/4/6 75/4/6
f 73/1/6 74/1/6 75/1/6
f 74/4/6 68/4/6 76/4/6
f 75/1/6 74/1/6 76/1/6
f 65/4/6 75/4/6 77/4/6
f 75/3/6 76/3/6 78/3/6
f 77/4/6 75/4/6 78/4/6
f 76/4/6 68/4/6 79/4/6
f 78/3/6 76/3/6 79/3/6
f 79/4/6 68/4/6 80/4/6
