# MagicaVoxel @ Ephtracy

# group
o 

# material
mtllib dwarf body.mtl
usemtl palette

# normals
vn -1 0 0
vn 1 0 0
vn 0 0 1
vn 0 0 -1
vn 0 -1 0
vn 0 1 0

# texcoords
vt 0.00195312 0.5
vt 0.00585938 0.5
vt 0.0136719 0.5
vt 0.0175781 0.5
vt 0.0214844 0.5
vt 0.0253906 0.5
vt 0.0292969 0.5
vt 0.0566406 0.5
vt 0.0605469 0.5

# verts
v -0.3 0.3 0.3
v -0.3 0.3 0.2
v -0.3 0.3 -0.1
v -0.3 0.3 -0.3
v -0.3 0.4 0
v -0.3 0.4 -0.1
v -0.3 0.4 -0.3
v -0.3 0.4 -0.4
v -0.3 0.5 0.3
v -0.3 0.5 0.2
v -0.3 0.8 0
v -0.3 0.8 -0.4
v -0.3 0.9 0.1
v -0.3 0.9 0
v -0.3 1 0.1
v -0.3 1 0
v -0.2 0 -0.1
v -0.2 0 -0.3
v -0.2 0.1 -0.1
v -0.2 0.1 -0.3
v -0.2 0.2 -0.1
v -0.2 0.2 -0.3
v -0.2 0.3 0
v -0.2 0.3 -0.1
v -0.2 0.3 -0.3
v -0.2 0.3 -0.4
v -0.2 0.4 0.2
v -0.2 0.4 0
v -0.2 0.4 -0.1
v -0.2 0.4 -0.3
v -0.2 0.4 -0.4
v -0.2 0.5 0.3
v -0.2 0.5 0.2
v -0.2 0.6 0.3
v -0.2 0.6 0.1
v -0.2 0.6 0
v -0.2 0.7 0.1
v -0.2 0.7 0
v -0.2 0.8 0.1
v -0.2 0.8 0
v -0.2 0.9 0.1
v -0.2 0.9 0
v -0.1 0 0
v -0.1 0 -0.1
v -0.1 0 -0.3
v -0.1 0 -0.4
v -0.1 0.1 0
v -0.1 0.1 -0.1
v -0.1 0.1 -0.3
v -0.1 0.1 -0.4
v -0.1 0.2 0.2
v -0.1 0.2 0.1
v -0.1 0.2 0
v -0.1 0.2 -0.1
v -0.1 0.2 -0.3
v -0.1 0.2 -0.4
v -0.1 0.3 0.1
v -0.1 0.3 0
v -0.1 0.3 -0.1
v -0.1 0.3 -0.3
v -0.1 0.3 -0.4
v -0.1 0.4 0.2
v -0.1 0.4 0
v -0.1 0.6 0.2
v -0.1 0.6 0.1
v -0.1 0.7 0.2
v -0.1 0.7 0.1
v -0.1 0.7 0
v -0.1 0.8 0.2
v -0.1 0.8 0.1
v -0.1 0.8 0
v 0 0.1 0.2
v 0 0.1 0.1
v 0 0.2 0.2
v 0 0.2 0.1
v 0 0.2 0
v 0 0.3 0.1
v 0 0.3 0
v 0 0.6 0.3
v 0 0.6 0.2
v 0 0.7 0.3
v 0 0.7 0.2
v 0 0.8 0.2
v 0 0.8 0.1
v 0 0.8 0
v 0 0.8 -0.1
v 0 0.9 0.2
v 0 0.9 0.1
v 0 0.9 0
v 0 0.9 -0.1
v 0.2 0.4 0.2
v 0.2 0.4 0.1
v 0.2 0.5 0.2
v 0.2 0.5 0.1
v 0.3 0.3 0.3
v 0.3 0.3 0.2
v 0.3 0.4 0.2
v 0.3 0.5 0.3
v 0.3 0.5 0.2
v 0.3 0.9 0.1
v 0.3 0.9 0
v 0.3 1 0.1
v 0.3 1 0
v -0.2 0.3 0.3
v -0.2 0.3 0.2
v -0.2 0.4 0.2
v -0.2 0.5 0.3
v -0.2 0.5 0.2
v -0.2 0.9 0.1
v -0.2 0.9 0
v -0.2 1 0.1
v -0.2 1 0
v -0.1 0.4 0.2
v -0.1 0.4 0.1
v -0.1 0.5 0.2
v -0.1 0.5 0.1
v 0.1 0.1 0.2
v 0.1 0.1 0.1
v 0.1 0.2 0.2
v 0.1 0.2 0.1
v 0.1 0.2 0
v 0.1 0.3 0.1
v 0.1 0.3 0
v 0.1 0.6 0.3
v 0.1 0.6 0.2
v 0.1 0.7 0.3
v 0.1 0.7 0.2
v 0.1 0.8 0.2
v 0.1 0.8 0.1
v 0.1 0.8 0
v 0.1 0.8 -0.1
v 0.1 0.9 0.2
v 0.1 0.9 0.1
v 0.1 0.9 0
v 0.1 0.9 -0.1
v 0.2 0 0
v 0.2 0 -0.1
v 0.2 0 -0.3
v 0.2 0 -0.4
v 0.2 0.1 0
v 0.2 0.1 -0.1
v 0.2 0.1 -0.3
v 0.2 0.1 -0.4
v 0.2 0.2 0.2
v 0.2 0.2 0.1
v 0.2 0.2 0
v 0.2 0.2 -0.1
v 0.2 0.2 -0.3
v 0.2 0.2 -0.4
v 0.2 0.3 0.1
v 0.2 0.3 0
v 0.2 0.3 -0.1
v 0.2 0.3 -0.3
v 0.2 0.3 -0.4
v 0.2 0.4 0.2
v 0.2 0.4 0
v 0.2 0.6 0.2
v 0.2 0.6 0.1
v 0.2 0.7 0.2
v 0.2 0.7 0.1
v 0.2 0.7 0
v 0.2 0.8 0.2
v 0.2 0.8 0.1
v 0.2 0.8 0
v 0.3 0 -0.1
v 0.3 0 -0.3
v 0.3 0.1 -0.1
v 0.3 0.1 -0.3
v 0.3 0.2 -0.1
v 0.3 0.2 -0.3
v 0.3 0.3 0
v 0.3 0.3 -0.1
v 0.3 0.3 -0.3
v 0.3 0.3 -0.4
v 0.3 0.4 0.2
v 0.3 0.4 0
v 0.3 0.4 -0.1
v 0.3 0.4 -0.3
v 0.3 0.4 -0.4
v 0.3 0.5 0.3
v 0.3 0.5 0.2
v 0.3 0.6 0.3
v 0.3 0.6 0.1
v 0.3 0.6 0
v 0.3 0.7 0.1
v 0.3 0.7 0
v 0.3 0.8 0.1
v 0.3 0.8 0
v 0.3 0.9 0.1
v 0.3 0.9 0
v 0.4 0.3 0.3
v 0.4 0.3 0.2
v 0.4 0.3 -0.1
v 0.4 0.3 -0.3
v 0.4 0.4 0
v 0.4 0.4 -0.1
v 0.4 0.4 -0.3
v 0.4 0.4 -0.4
v 0.4 0.5 0.3
v 0.4 0.5 0.2
v 0.4 0.8 0
v 0.4 0.8 -0.4
v 0.4 0.9 0.1
v 0.4 0.9 0
v 0.4 1 0.1
v 0.4 1 0
v -0.3 0.3 0.3
v -0.3 0.5 0.3
v -0.2 0.3 0.3
v -0.2 0.5 0.3
v -0.2 0.6 0.3
v 0 0.6 0.3
v 0 0.7 0.3
v 0.1 0.6 0.3
v 0.1 0.7 0.3
v 0.3 0.3 0.3
v 0.3 0.5 0.3
v 0.3 0.6 0.3
v 0.4 0.3 0.3
v 0.4 0.5 0.3
v -0.2 0.4 0.2
v -0.2 0.5 0.2
v -0.1 0.2 0.2
v -0.1 0.4 0.2
v -0.1 0.5 0.2
v -0.1 0.6 0.2
v -0.1 0.7 0.2
v -0.1 0.8 0.2
v 0 0.1 0.2
v 0 0.2 0.2
v 0 0.6 0.2
v 0 0.7 0.2
v 0 0.8 0.2
v 0 0.9 0.2
v 0.1 0.1 0.2
v 0.1 0.2 0.2
v 0.1 0.6 0.2
v 0.1 0.7 0.2
v 0.1 0.8 0.2
v 0.1 0.9 0.2
v 0.2 0.2 0.2
v 0.2 0.4 0.2
v 0.2 0.5 0.2
v 0.2 0.6 0.2
v 0.2 0.7 0.2
v 0.2 0.8 0.2
v 0.3 0.4 0.2
v 0.3 0.5 0.2
v -0.3 0.9 0.1
v -0.3 1 0.1
v -0.2 0.6 0.1
v -0.2 0.7 0.1
v -0.2 0.8 0.1
v -0.2 0.9 0.1
v -0.2 1 0.1
v -0.1 0.4 0.1
v -0.1 0.5 0.1
v -0.1 0.6 0.1
v -0.1 0.7 0.1
v -0.1 0.8 0.1
v 0 0.4 0.1
v 0 0.5 0.1
v 0 0.8 0.1
v 0 0.9 0.1
v 0.1 0.4 0.1
v 0.1 0.5 0.1
v 0.1 0.8 0.1
v 0.1 0.9 0.1
v 0.2 0.4 0.1
v 0.2 0.5 0.1
v 0.2 0.6 0.1
v 0.2 0.7 0.1
v 0.2 0.8 0.1
v 0.3 0.6 0.1
v 0.3 0.7 0.1
v 0.3 0.8 0.1
v 0.3 0.9 0.1
v 0.3 1 0.1
v 0.4 0.9 0.1
v 0.4 1 0.1
v -0.3 0.4 0
v -0.3 0.8 0
v -0.2 0.3 0
v -0.2 0.4 0
v -0.2 0.6 0
v -0.2 0.7 0
v -0.2 0.8 0
v -0.1 0 0
v -0.1 0.1 0
v -0.1 0.2 0
v -0.1 0.3 0
v -0.1 0.4 0
v -0.1 0.7 0
v -0.1 0.8 0
v 0 0.2 0
v 0 0.3 0
v 0.1 0.2 0
v 0.1 0.3 0
v 0.2 0 0
v 0.2 0.1 0
v 0.2 0.2 0
v 0.2 0.3 0
v 0.2 0.4 0
v 0.2 0.7 0
v 0.2 0.8 0
v 0.3 0.3 0
v 0.3 0.4 0
v 0.3 0.6 0
v 0.3 0.7 0
v 0.3 0.8 0
v 0.4 0.4 0
v 0.4 0.8 0
v -0.3 0.3 -0.1
v -0.3 0.4 -0.1
v -0.2 0 -0.1
v -0.2 0.1 -0.1
v -0.2 0.2 -0.1
v -0.2 0.3 -0.1
v -0.2 0.4 -0.1
v -0.1 0 -0.1
v -0.1 0.1 -0.1
v -0.1 0.2 -0.1
v -0.1 0.3 -0.1
v 0 0.1 -0.1
v 0 0.2 -0.1
v 0.1 0.1 -0.1
v 0.1 0.2 -0.1
v 0.2 0 -0.1
v 0.2 0.1 -0.1
v 0.2 0.2 -0.1
v 0.2 0.3 -0.1
v 0.3 0 -0.1
v 0.3 0.1 -0.1
v 0.3 0.2 -0.1
v 0.3 0.3 -0.1
v 0.3 0.4 -0.1
v 0.4 0.3 -0.1
v 0.4 0.4 -0.1
v -0.3 0.3 0.2
v -0.3 0.5 0.2
v -0.2 0.3 0.2
v -0.2 0.4 0.2
v -0.2 0.5 0.2
v 0.3 0.3 0.2
v 0.3 0.4 0.2
v 0.3 0.5 0.2
v 0.4 0.3 0.2
v 0.4 0.5 0.2
v -0.1 0.2 0.1
v -0.1 0.3 0.1
v 0 0.1 0.1
v 0 0.2 0.1
v 0 0.3 0.1
v 0.1 0.1 0.1
v 0.1 0.2 0.1
v 0.1 0.3 0.1
v 0.2 0.2 0.1
v 0.2 0.3 0.1
v -0.3 0.9 0
v -0.3 1 0
v -0.2 0.8 0
v -0.2 0.9 0
v -0.2 1 0
v -0.1 0.8 0
v 0 0.8 0
v 0 0.9 0
v 0.1 0.8 0
v 0.1 0.9 0
v 0.2 0.8 0
v 0.3 0.8 0
v 0.3 0.9 0
v 0.3 1 0
v 0.4 0.9 0
v 0.4 1 0
v 0 0.8 -0.1
v 0 0.9 -0.1
v 0.1 0.8 -0.1
v 0.1 0.9 -0.1
v -0.3 0.3 -0.3
v -0.3 0.4 -0.3
v -0.2 0 -0.3
v -0.2 0.1 -0.3
v -0.2 0.2 -0.3
v -0.2 0.3 -0.3
v -0.2 0.4 -0.3
v -0.1 0 -0.3
v -0.1 0.1 -0.3
v -0.1 0.2 -0.3
v -0.1 0.3 -0.3
v 0.2 0 -0.3
v 0.2 0.1 -0.3
v 0.2 0.2 -0.3
v 0.2 0.3 -0.3
v 0.3 0 -0.3
v 0.3 0.1 -0.3
v 0.3 0.2 -0.3
v 0.3 0.3 -0.3
v 0.3 0.4 -0.3
v 0.4 0.3 -0.3
v 0.4 0.4 -0.3
v -0.3 0.4 -0.4
v -0.3 0.8 -0.4
v -0.2 0.3 -0.4
v -0.2 0.4 -0.4
v -0.1 0 -0.4
v -0.1 0.1 -0.4
v -0.1 0.2 -0.4
v -0.1 0.3 -0.4
v 0.2 0 -0.4
v 0.2 0.1 -0.4
v 0.2 0.2 -0.4
v 0.2 0.3 -0.4
v 0.3 0.3 -0.4
v 0.3 0.4 -0.4
v 0.4 0.4 -0.4
v 0.4 0.8 -0.4
v -0.1 0 0
v 0.2 0 0
v -0.2 0 -0.1
v -0.1 0 -0.1
v 0.2 0 -0.1
v 0.3 0 -0.1
v -0.2 0 -0.3
v -0.1 0 -0.3
v 0.2 0 -0.3
v 0.3 0 -0.3
v -0.1 0 -0.4
v 0.2 0 -0.4
v 0 0.1 0.2
v 0.1 0.1 0.2
v 0 0.1 0.1
v 0.1 0.1 0.1
v -0.1 0.2 0.2
v 0 0.2 0.2
v 0.1 0.2 0.2
v 0.2 0.2 0.2
v -0.1 0.2 0.1
v 0 0.2 0.1
v 0.1 0.2 0.1
v 0.2 0.2 0.1
v -0.1 0.2 0
v 0 0.2 0
v 0.1 0.2 0
v 0.2 0.2 0
v -0.2 0.2 -0.1
v -0.1 0.2 -0.1
v 0 0.2 -0.1
v 0.1 0.2 -0.1
v 0.2 0.2 -0.1
v 0.3 0.2 -0.1
v -0.2 0.2 -0.3
v -0.1 0.2 -0.3
v 0.2 0.2 -0.3
v 0.3 0.2 -0.3
v -0.1 0.2 -0.4
v 0.2 0.2 -0.4
v -0.3 0.3 0.3
v -0.2 0.3 0.3
v 0.3 0.3 0.3
v 0.4 0.3 0.3
v -0.3 0.3 0.2
v -0.2 0.3 0.2
v 0.3 0.3 0.2
v 0.4 0.3 0.2
v -0.1 0.3 0.1
v 0 0.3 0.1
v 0.1 0.3 0.1
v 0.2 0.3 0.1
v -0.2 0.3 0
v -0.1 0.3 0
v 0 0.3 0
v 0.1 0.3 0
v 0.2 0.3 0
v 0.3 0.3 0
v -0.3 0.3 -0.1
v -0.2 0.3 -0.1
v -0.1 0.3 -0.1
v 0.2 0.3 -0.1
v 0.3 0.3 -0.1
v 0.4 0.3 -0.1
v -0.3 0.3 -0.3
v -0.2 0.3 -0.3
v -0.1 0.3 -0.3
v 0.2 0.3 -0.3
v 0.3 0.3 -0.3
v 0.4 0.3 -0.3
v -0.2 0.3 -0.4
v -0.1 0.3 -0.4
v 0.2 0.3 -0.4
v 0.3 0.3 -0.4
v -0.2 0.4 0.2
v -0.1 0.4 0.2
v 0.2 0.4 0.2
v 0.3 0.4 0.2
v -0.3 0.4 0
v -0.2 0.4 0
v -0.1 0.4 0
v 0.2 0.4 0
v 0.3 0.4 0
v 0.4 0.4 0
v -0.3 0.4 -0.1
v -0.2 0.4 -0.1
v 0.3 0.4 -0.1
v 0.4 0.4 -0.1
v -0.3 0.4 -0.3
v -0.2 0.4 -0.3
v 0.3 0.4 -0.3
v 0.4 0.4 -0.3
v -0.3 0.4 -0.4
v -0.2 0.4 -0.4
v 0.3 0.4 -0.4
v 0.4 0.4 -0.4
v -0.2 0.5 0.3
v 0.3 0.5 0.3
v -0.2 0.5 0.2
v -0.1 0.5 0.2
v 0.2 0.5 0.2
v 0.3 0.5 0.2
v -0.1 0.5 0.1
v 0 0.5 0.1
v 0.1 0.5 0.1
v 0.2 0.5 0.1
v -0.2 0.8 0.1
v -0.1 0.8 0.1
v 0.2 0.8 0.1
v 0.3 0.8 0.1
v -0.2 0.8 0
v -0.1 0.8 0
v 0.2 0.8 0
v 0.3 0.8 0
v -0.3 0.9 0.1
v -0.2 0.9 0.1
v 0.3 0.9 0.1
v 0.4 0.9 0.1
v -0.3 0.9 0
v -0.2 0.9 0
v 0.3 0.9 0
v 0.4 0.9 0
v -0.1 0.1 0
v 0.2 0.1 0
v -0.2 0.1 -0.1
v -0.1 0.1 -0.1
v 0 0.1 -0.1
v 0.1 0.1 -0.1
v 0.2 0.1 -0.1
v 0.3 0.1 -0.1
v -0.2 0.1 -0.3
v -0.1 0.1 -0.3
v 0.2 0.1 -0.3
v 0.3 0.1 -0.3
v -0.1 0.1 -0.4
v 0.2 0.1 -0.4
v -0.1 0.4 0.2
v 0.2 0.4 0.2
v -0.1 0.4 0.1
v 0 0.4 0.1
v 0.1 0.4 0.1
v 0.2 0.4 0.1
v -0.3 0.5 0.3
v -0.2 0.5 0.3
v 0.3 0.5 0.3
v 0.4 0.5 0.3
v -0.3 0.5 0.2
v -0.2 0.5 0.2
v 0.3 0.5 0.2
v 0.4 0.5 0.2
v -0.2 0.6 0.3
v 0 0.6 0.3
v 0.1 0.6 0.3
v 0.3 0.6 0.3
v -0.1 0.6 0.2
v 0 0.6 0.2
v 0.1 0.6 0.2
v 0.2 0.6 0.2
v -0.2 0.6 0.1
v -0.1 0.6 0.1
v 0.2 0.6 0.1
v 0.3 0.6 0.1
v 0 0.7 0.3
v 0.1 0.7 0.3
v 0 0.7 0.2
v 0.1 0.7 0.2
v -0.2 0.7 0.1
v -0.1 0.7 0.1
v 0.2 0.7 0.1
v 0.3 0.7 0.1
v -0.2 0.7 0
v -0.1 0.7 0
v 0.2 0.7 0
v 0.3 0.7 0
v -0.1 0.8 0.2
v 0 0.8 0.2
v 0.1 0.8 0.2
v 0.2 0.8 0.2
v -0.1 0.8 0.1
v 0 0.8 0.1
v 0.1 0.8 0.1
v 0.2 0.8 0.1
v -0.3 0.8 0
v -0.2 0.8 0
v -0.1 0.8 0
v 0 0.8 0
v 0.1 0.8 0
v 0.2 0.8 0
v 0.3 0.8 0
v 0.4 0.8 0
v -0.1 0.8 -0.1
v 0 0.8 -0.1
v 0.1 0.8 -0.1
v 0.2 0.8 -0.1
v -0.3 0.8 -0.4
v 0.4 0.8 -0.4
v 0 0.9 0.2
v 0.1 0.9 0.2
v -0.2 0.9 0.1
v 0 0.9 0.1
v 0.1 0.9 0.1
v 0.3 0.9 0.1
v -0.2 0.9 0
v 0 0.9 0
v 0.1 0.9 0
v 0.3 0.9 0
v 0 0.9 -0.1
v 0.1 0.9 -0.1
v -0.3 1 0.1
v -0.2 1 0.1
v 0.3 1 0.1
v 0.4 1 0.1
v -0.3 1 0
v -0.2 1 0
v 0.3 1 0
v 0.4 1 0

# faces
f 6/1/1 4/1/1 3/1/1
f 7/1/1 4/1/1 6/1/1
f 9/8/1 2/8/1 1/8/1
f 10/8/1 2/8/1 9/8/1
f 11/1/1 8/1/1 7/1/1
f 11/1/1 6/1/1 5/1/1
f 11/1/1 7/1/1 6/1/1
f 12/1/1 8/1/1 11/1/1
f 15/5/1 14/5/1 13/5/1
f 16/5/1 14/5/1 15/5/1
f 19/6/1 18/6/1 17/6/1
f 20/6/1 18/6/1 19/6/1
f 24/1/1 22/1/1 21/1/1
f 25/1/1 22/1/1 24/1/1
f 28/1/1 24/1/1 23/1/1
f 29/1/1 24/1/1 28/1/1
f 30/1/1 26/1/1 25/1/1
f 31/1/1 26/1/1 30/1/1
f 33/8/1 28/8/1 27/8/1
f 34/8/1 33/8/1 32/8/1
f 35/8/1 28/8/1 33/8/1
f 35/8/1 33/8/1 34/8/1
f 36/8/1 28/8/1 35/8/1
f 37/7/1 36/7/1 35/7/1
f 38/7/1 36/7/1 37/7/1
f 41/5/1 40/5/1 39/5/1
f 42/5/1 40/5/1 41/5/1
f 47/6/1 44/6/1 43/6/1
f 48/6/1 44/6/1 47/6/1
f 49/6/1 46/6/1 45/6/1
f 50/6/1 46/6/1 49/6/1
f 54/2/1 49/2/1 48/2/1
f 55/2/1 49/2/1 54/2/1
f 57/8/1 52/8/1 51/8/1
f 58/1/1 54/1/1 53/1/1
f 59/1/1 54/1/1 58/1/1
f 60/1/1 56/1/1 55/1/1
f 61/1/1 56/1/1 60/1/1
f 62/8/1 57/8/1 51/8/1
f 62/8/1 58/8/1 57/8/1
f 63/8/1 58/8/1 62/8/1
f 66/9/1 65/9/1 64/9/1
f 67/9/1 65/9/1 66/9/1
f 69/3/1 67/3/1 66/3/1
f 69/3/1 68/3/1 67/3/1
f 70/3/1 68/3/1 69/3/1
f 71/3/1 68/3/1 70/3/1
f 74/8/1 73/8/1 72/8/1
f 75/8/1 73/8/1 74/8/1
f 77/8/1 76/8/1 75/8/1
f 78/8/1 76/8/1 77/8/1
f 81/4/1 80/4/1 79/4/1
f 82/4/1 80/4/1 81/4/1
f 87/3/1 84/3/1 83/3/1
f 88/3/1 84/3/1 87/3/1
f 89/3/1 86/3/1 85/3/1
f 90/3/1 86/3/1 89/3/1
f 93/8/1 92/8/1 91/8/1
f 94/8/1 92/8/1 93/8/1
f 97/8/1 96/8/1 95/8/1
f 98/8/1 97/8/1 95/8/1
f 99/8/1 97/8/1 98/8/1
f 102/5/1 101/5/1 100/5/1
f 103/5/1 101/5/1 102/5/1
f 104/8/2 105/8/2 106/8/2
f 104/8/2 106/8/2 107/8/2
f 107/8/2 106/8/2 108/8/2
f 109/5/2 110/5/2 111/5/2
f 111/5/2 110/5/2 112/5/2
f 113/8/2 114/8/2 115/8/2
f 115/8/2 114/8/2 116/8/2
f 117/8/2 118/8/2 119/8/2
f 119/8/2 118/8/2 120/8/2
f 120/8/2 121/8/2 122/8/2
f 122/8/2 121/8/2 123/8/2
f 124/4/2 125/4/2 126/4/2
f 126/4/2 125/4/2 127/4/2
f 128/3/2 129/3/2 132/3/2
f 132/3/2 129/3/2 133/3/2
f 130/3/2 131/3/2 134/3/2
f 134/3/2 131/3/2 135/3/2
f 136/6/2 137/6/2 140/6/2
f 140/6/2 137/6/2 141/6/2
f 138/6/2 139/6/2 142/6/2
f 142/6/2 139/6/2 143/6/2
f 141/2/2 142/2/2 147/2/2
f 147/2/2 142/2/2 148/2/2
f 144/8/2 145/8/2 150/8/2
f 146/1/2 147/1/2 151/1/2
f 151/1/2 147/1/2 152/1/2
f 148/1/2 149/1/2 153/1/2
f 153/1/2 149/1/2 154/1/2
f 144/8/2 150/8/2 155/8/2
f 150/8/2 151/8/2 155/8/2
f 155/8/2 151/8/2 156/8/2
f 157/9/2 158/9/2 159/9/2
f 159/9/2 158/9/2 160/9/2
f 159/3/2 160/3/2 162/3/2
f 160/3/2 161/3/2 162/3/2
f 162/3/2 161/3/2 163/3/2
f 163/3/2 161/3/2 164/3/2
f 165/6/2 166/6/2 167/6/2
f 167/6/2 166/6/2 168/6/2
f 169/1/2 170/1/2 172/1/2
f 172/1/2 170/1/2 173/1/2
f 171/1/2 172/1/2 176/1/2
f 176/1/2 172/1/2 177/1/2
f 173/1/2 174/1/2 178/1/2
f 178/1/2 174/1/2 179/1/2
f 175/8/2 176/8/2 181/8/2
f 180/8/2 181/8/2 182/8/2
f 181/8/2 176/8/2 183/8/2
f 182/8/2 181/8/2 183/8/2
f 183/8/2 176/8/2 184/8/2
f 183/7/2 184/7/2 185/7/2
f 185/7/2 184/7/2 186/7/2
f 187/5/2 188/5/2 189/5/2
f 189/5/2 188/5/2 190/5/2
f 193/1/2 194/1/2 196/1/2
f 196/1/2 194/1/2 197/1/2
f 191/8/2 192/8/2 199/8/2
f 199/8/2 192/8/2 200/8/2
f 197/1/2 198/1/2 201/1/2
f 195/1/2 196/1/2 201/1/2
f 196/1/2 197/1/2 201/1/2
f 201/1/2 198/1/2 202/1/2
f 203/5/2 204/5/2 205/5/2
f 205/5/2 204/5/2 206/5/2
f 209/8/3 208/8/3 207/8/3
f 210/8/3 208/8/3 209/8/3
f 212/8/3 211/8/3 210/8/3
f 214/8/3 212/8/3 210/8/3
f 214/4/3 213/4/3 212/4/3
f 215/4/3 213/4/3 214/4/3
f 217/8/3 214/8/3 210/8/3
f 218/8/3 214/8/3 217/8/3
f 219/8/3 217/8/3 216/8/3
f 220/8/3 217/8/3 219/8/3
f 224/8/3 222/8/3 221/8/3
f 225/8/3 222/8/3 224/8/3
f 230/8/3 224/8/3 223/8/3
f 231/9/3 227/9/3 226/9/3
f 232/3/3 228/3/3 227/3/3
f 232/9/3 227/9/3 231/9/3
f 233/3/3 228/3/3 232/3/3
f 235/8/3 230/8/3 229/8/3
f 236/8/3 224/8/3 230/8/3
f 236/8/3 230/8/3 235/8/3
f 238/3/3 234/3/3 233/3/3
f 238/3/3 233/3/3 232/3/3
f 239/3/3 234/3/3 238/3/3
f 240/3/3 234/3/3 239/3/3
f 241/8/3 224/8/3 236/8/3
f 242/8/3 224/8/3 241/8/3
f 244/9/3 238/9/3 237/9/3
f 245/3/3 239/3/3 238/3/3
f 245/9/3 238/9/3 244/9/3
f 246/3/3 239/3/3 245/3/3
f 247/8/3 243/8/3 242/8/3
f 248/8/3 243/8/3 247/8/3
f 254/5/3 250/5/3 249/5/3
f 255/5/3 250/5/3 254/5/3
f 258/7/3 252/7/3 251/7/3
f 259/7/3 252/7/3 258/7/3
f 260/5/3 254/5/3 253/5/3
f 261/5/3 257/5/3 256/5/3
f 262/5/3 257/5/3 261/5/3
f 263/5/3 254/5/3 260/5/3
f 264/5/3 254/5/3 263/5/3
f 265/3/3 262/3/3 261/3/3
f 266/3/3 262/3/3 265/3/3
f 269/5/3 266/5/3 265/5/3
f 270/5/3 266/5/3 269/5/3
f 273/5/3 268/5/3 267/5/3
f 274/7/3 272/7/3 271/7/3
f 275/7/3 272/7/3 274/7/3
f 276/5/3 268/5/3 273/5/3
f 277/5/3 268/5/3 276/5/3
f 279/5/3 278/5/3 277/5/3
f 280/5/3 278/5/3 279/5/3
f 284/1/3 282/1/3 281/1/3
f 285/1/3 282/1/3 284/1/3
f 286/1/3 282/1/3 285/1/3
f 287/1/3 282/1/3 286/1/3
f 291/1/3 284/1/3 283/1/3
f 292/1/3 284/1/3 291/1/3
f 293/1/3 287/1/3 286/1/3
f 294/1/3 287/1/3 293/1/3
f 295/1/3 291/1/3 290/1/3
f 296/1/3 291/1/3 295/1/3
f 299/6/3 289/6/3 288/6/3
f 300/6/3 289/6/3 299/6/3
f 301/1/3 298/1/3 297/1/3
f 302/1/3 298/1/3 301/1/3
f 306/1/3 303/1/3 302/1/3
f 307/1/3 303/1/3 306/1/3
f 309/1/3 305/1/3 304/1/3
f 310/1/3 305/1/3 309/1/3
f 311/1/3 308/1/3 307/1/3
f 311/1/3 310/1/3 309/1/3
f 311/1/3 309/1/3 308/1/3
f 312/1/3 310/1/3 311/1/3
f 318/1/3 314/1/3 313/1/3
f 319/1/3 314/1/3 318/1/3
f 320/6/3 316/6/3 315/6/3
f 321/6/3 316/6/3 320/6/3
f 322/1/3 318/1/3 317/1/3
f 323/1/3 318/1/3 322/1/3
f 324/2/3 322/2/3 321/2/3
f 325/2/3 322/2/3 324/2/3
f 326/5/3 325/5/3 324/5/3
f 327/5/3 325/5/3 326/5/3
f 329/2/3 327/2/3 326/2/3
f 330/2/3 327/2/3 329/2/3
f 332/6/3 329/6/3 328/6/3
f 333/6/3 329/6/3 332/6/3
f 334/1/3 331/1/3 330/1/3
f 335/1/3 331/1/3 334/1/3
f 337/1/3 336/1/3 335/1/3
f 338/1/3 336/1/3 337/1/3
f 339/8/4 340/8/4 341/8/4
f 341/8/4 340/8/4 342/8/4
f 342/8/4 340/8/4 343/8/4
f 344/8/4 345/8/4 347/8/4
f 345/8/4 346/8/4 347/8/4
f 347/8/4 346/8/4 348/8/4
f 349/8/4 350/8/4 352/8/4
f 352/8/4 350/8/4 353/8/4
f 351/8/4 352/8/4 354/8/4
f 354/8/4 352/8/4 355/8/4
f 355/8/4 356/8/4 357/8/4
f 357/8/4 356/8/4 358/8/4
f 359/5/4 360/5/4 362/5/4
f 362/5/4 360/5/4 363/5/4
f 361/5/4 362/5/4 364/5/4
f 364/5/4 362/5/4 365/5/4
f 365/5/4 362/5/4 366/5/4
f 367/5/4 368/5/4 369/5/4
f 369/5/4 368/5/4 370/5/4
f 370/5/4 368/5/4 371/5/4
f 371/5/4 372/5/4 373/5/4
f 373/5/4 372/5/4 374/5/4
f 375/3/4 376/3/4 377/3/4
f 377/3/4 376/3/4 378/3/4
f 379/1/4 380/1/4 384/1/4
f 384/1/4 380/1/4 385/1/4
f 381/6/4 382/6/4 386/6/4
f 386/6/4 382/6/4 387/6/4
f 383/1/4 384/1/4 388/1/4
f 388/1/4 384/1/4 389/1/4
f 387/2/4 388/2/4 391/2/4
f 391/2/4 388/2/4 392/2/4
f 390/6/4 391/6/4 394/6/4
f 394/6/4 391/6/4 395/6/4
f 392/1/4 393/1/4 396/1/4
f 396/1/4 393/1/4 397/1/4
f 397/1/4 398/1/4 399/1/4
f 399/1/4 398/1/4 400/1/4
f 401/1/4 402/1/4 404/1/4
f 403/1/4 404/1/4 408/1/4
f 405/6/4 406/6/4 409/6/4
f 409/6/4 406/6/4 410/6/4
f 407/1/4 408/1/4 411/1/4
f 408/1/4 404/1/4 412/1/4
f 411/1/4 408/1/4 412/1/4
f 412/1/4 404/1/4 413/1/4
f 404/1/4 402/1/4 414/1/4
f 413/1/4 404/1/4 414/1/4
f 414/1/4 402/1/4 415/1/4
f 415/1/4 402/1/4 416/1/4
f 420/6/5 418/6/5 417/6/5
f 421/6/5 418/6/5 420/6/5
f 423/6/5 420/6/5 419/6/5
f 423/6/5 422/6/5 421/6/5
f 423/6/5 421/6/5 420/6/5
f 424/6/5 422/6/5 423/6/5
f 425/6/5 422/6/5 424/6/5
f 426/6/5 422/6/5 425/6/5
f 427/6/5 425/6/5 424/6/5
f 428/6/5 425/6/5 427/6/5
f 431/8/5 430/8/5 429/8/5
f 432/8/5 430/8/5 431/8/5
f 437/8/5 434/8/5 433/8/5
f 438/8/5 434/8/5 437/8/5
f 439/8/5 436/8/5 435/8/5
f 440/8/5 436/8/5 439/8/5
f 442/8/5 439/8/5 438/8/5
f 443/8/5 439/8/5 442/8/5
f 446/1/5 442/1/5 441/1/5
f 446/1/5 444/1/5 443/1/5
f 446/1/5 443/1/5 442/1/5
f 447/1/5 444/1/5 446/1/5
f 448/1/5 444/1/5 447/1/5
f 449/1/5 444/1/5 448/1/5
f 451/1/5 446/1/5 445/1/5
f 452/1/5 446/1/5 451/1/5
f 453/1/5 450/1/5 449/1/5
f 454/1/5 450/1/5 453/1/5
f 455/1/5 453/1/5 452/1/5
f 456/1/5 453/1/5 455/1/5
f 461/8/5 458/8/5 457/8/5
f 462/8/5 458/8/5 461/8/5
f 463/8/5 460/8/5 459/8/5
f 464/8/5 460/8/5 463/8/5
f 470/8/5 466/8/5 465/8/5
f 471/8/5 466/8/5 470/8/5
f 472/8/5 468/8/5 467/8/5
f 473/8/5 468/8/5 472/8/5
f 476/1/5 470/1/5 469/1/5
f 477/1/5 470/1/5 476/1/5
f 478/1/5 474/1/5 473/1/5
f 479/1/5 474/1/5 478/1/5
f 481/1/5 476/1/5 475/1/5
f 482/1/5 476/1/5 481/1/5
f 485/1/5 480/1/5 479/1/5
f 486/1/5 480/1/5 485/1/5
f 487/1/5 483/1/5 482/1/5
f 488/1/5 483/1/5 487/1/5
f 489/1/5 485/1/5 484/1/5
f 490/1/5 485/1/5 489/1/5
f 496/8/5 492/8/5 491/8/5
f 497/8/5 492/8/5 496/8/5
f 498/8/5 494/8/5 493/8/5
f 499/8/5 494/8/5 498/8/5
f 501/1/5 496/1/5 495/1/5
f 502/1/5 496/1/5 501/1/5
f 503/1/5 500/1/5 499/1/5
f 504/1/5 500/1/5 503/1/5
f 509/1/5 506/1/5 505/1/5
f 510/1/5 506/1/5 509/1/5
f 511/1/5 508/1/5 507/1/5
f 512/1/5 508/1/5 511/1/5
f 515/8/5 514/8/5 513/8/5
f 516/8/5 514/8/5 515/8/5
f 517/8/5 514/8/5 516/8/5
f 518/8/5 514/8/5 517/8/5
f 519/8/5 517/8/5 516/8/5
f 520/8/5 517/8/5 519/8/5
f 521/8/5 517/8/5 520/8/5
f 522/8/5 517/8/5 521/8/5
f 527/5/5 524/5/5 523/5/5
f 528/5/5 524/5/5 527/5/5
f 529/5/5 526/5/5 525/5/5
f 530/5/5 526/5/5 529/5/5
f 535/5/5 532/5/5 531/5/5
f 536/5/5 532/5/5 535/5/5
f 537/5/5 534/5/5 533/5/5
f 538/5/5 534/5/5 537/5/5
f 539/6/6 540/6/6 542/6/6
f 542/6/6 540/6/6 543/6/6
f 543/6/6 540/6/6 544/6/6
f 544/6/6 540/6/6 545/6/6
f 541/6/6 542/6/6 547/6/6
f 547/6/6 542/6/6 548/6/6
f 545/6/6 546/6/6 549/6/6
f 549/6/6 546/6/6 550/6/6
f 548/6/6 549/6/6 551/6/6
f 551/6/6 549/6/6 552/6/6
f 553/8/6 554/8/6 555/8/6
f 555/8/6 554/8/6 556/8/6
f 556/8/6 554/8/6 557/8/6
f 557/8/6 554/8/6 558/8/6
f 559/8/6 560/8/6 563/8/6
f 563/8/6 560/8/6 564/8/6
f 561/8/6 562/8/6 565/8/6
f 565/8/6 562/8/6 566/8/6
f 567/8/6 568/8/6 571/8/6
f 571/8/6 568/8/6 572/8/6
f 569/8/6 570/8/6 573/8/6
f 573/8/6 570/8/6 574/8/6
f 567/8/6 571/8/6 575/8/6
f 575/8/6 571/8/6 576/8/6
f 574/8/6 570/8/6 577/8/6
f 577/8/6 570/8/6 578/8/6
f 579/4/6 580/4/6 581/4/6
f 581/4/6 580/4/6 582/4/6
f 583/7/6 584/7/6 587/7/6
f 587/7/6 584/7/6 588/7/6
f 585/7/6 586/7/6 589/7/6
f 589/7/6 586/7/6 590/7/6
f 591/3/6 592/3/6 595/3/6
f 595/3/6 592/3/6 596/3/6
f 593/3/6 594/3/6 597/3/6
f 597/3/6 594/3/6 598/3/6
f 599/1/6 600/1/6 607/1/6
f 600/1/6 601/1/6 607/1/6
f 601/3/6 602/3/6 607/3/6
f 607/3/6 602/3/6 608/3/6
f 603/3/6 604/3/6 609/3/6
f 605/1/6 606/1/6 610/1/6
f 604/1/6 605/1/6 610/1/6
f 609/3/6 604/3/6 610/3/6
f 607/1/6 608/1/6 611/1/6
f 608/1/6 609/1/6 611/1/6
f 609/1/6 610/1/6 611/1/6
f 599/1/6 607/1/6 611/1/6
f 610/1/6 606/1/6 612/1/6
f 611/1/6 610/1/6 612/1/6
f 613/3/6 614/3/6 616/3/6
f 616/3/6 614/3/6 617/3/6
f 615/5/6 616/5/6 619/5/6
f 616/3/6 617/3/6 620/3/6
f 619/5/6 616/5/6 620/5/6
f 617/5/6 618/5/6 621/5/6
f 620/3/6 617/3/6 621/3/6
f 621/5/6 618/5/6 622/5/6
f 620/3/6 621/3/6 623/3/6
f 623/3/6 621/3/6 624/3/6
f 625/5/6 626/5/6 629/5/6
f 629/5/6 626/5/6 630/5/6
f 627/5/6 628/5/6 631/5/6
f 631/5/6 628/5/6 632/5/6
