# MagicaVoxel @ Ephtracy

# group
o 

# material
mtllib bat head.mtl
usemtl palette

# normals
vn -1 0 0
vn 1 0 0
vn 0 0 1
vn 0 0 -1
vn 0 -1 0
vn 0 1 0

# texcoords
vt 0.00195312 0.5
vt 0.00585938 0.5
vt 0.00976562 0.5
vt 0.0136719 0.5

# verts
v -0.2 0.2 0
v -0.2 0.2 -0.1
v -0.2 0.4 0
v -0.2 0.4 -0.1
v -0.2 0.5 0
v -0.2 0.5 -0.1
v -0.1 0 0.1
v -0.1 0 -0.2
v -0.1 0.1 0.1
v -0.1 0.1 0
v -0.1 0.2 0.1
v -0.1 0.2 0
v -0.1 0.2 -0.1
v -0.1 0.3 0.1
v -0.1 0.3 0
v -0.1 0.3 -0.1
v -0.1 0.3 -0.2
v 0.1 0.3 0
v 0.1 0.3 -0.1
v 0.1 0.5 0
v 0.1 0.5 -0.1
v 0 0.3 0
v 0 0.3 -0.1
v 0 0.5 0
v 0 0.5 -0.1
v 0.2 0 0.1
v 0.2 0 -0.2
v 0.2 0.1 0.1
v 0.2 0.1 0
v 0.2 0.2 0.1
v 0.2 0.2 0
v 0.2 0.2 -0.1
v 0.2 0.3 0.1
v 0.2 0.3 0
v 0.2 0.3 -0.1
v 0.2 0.3 -0.2
v 0.3 0.2 0
v 0.3 0.2 -0.1
v 0.3 0.4 0
v 0.3 0.4 -0.1
v 0.3 0.5 0
v 0.3 0.5 -0.1
v -0.1 0 0.1
v -0.1 0.1 0.1
v -0.1 0.2 0.1
v -0.1 0.3 0.1
v 0 0.1 0.1
v 0 0.2 0.1
v 0.1 0.1 0.1
v 0.1 0.2 0.1
v 0.2 0 0.1
v 0.2 0.1 0.1
v 0.2 0.2 0.1
v 0.2 0.3 0.1
v -0.2 0.2 0
v -0.2 0.4 0
v -0.2 0.5 0
v -0.1 0.2 0
v -0.1 0.3 0
v -0.1 0.4 0
v 0 0.3 0
v 0 0.5 0
v 0.1 0.3 0
v 0.1 0.5 0
v 0.2 0.2 0
v 0.2 0.3 0
v 0.2 0.4 0
v 0.3 0.2 0
v 0.3 0.4 0
v 0.3 0.5 0
v -0.2 0.2 -0.1
v -0.2 0.4 -0.1
v -0.2 0.5 -0.1
v -0.1 0.2 -0.1
v -0.1 0.3 -0.1
v -0.1 0.4 -0.1
v 0 0.3 -0.1
v 0 0.5 -0.1
v 0.1 0.3 -0.1
v 0.1 0.5 -0.1
v 0.2 0.2 -0.1
v 0.2 0.3 -0.1
v 0.2 0.4 -0.1
v 0.3 0.2 -0.1
v 0.3 0.4 -0.1
v 0.3 0.5 -0.1
v -0.1 0 -0.2
v -0.1 0.3 -0.2
v 0.2 0 -0.2
v 0.2 0.3 -0.2
v -0.1 0 0.1
v 0.2 0 0.1
v -0.1 0 -0.2
v 0.2 0 -0.2
v -0.2 0.2 0
v -0.1 0.2 0
v 0.2 0.2 0
v 0.3 0.2 0
v -0.2 0.2 -0.1
v -0.1 0.2 -0.1
v 0.2 0.2 -0.1
v 0.3 0.2 -0.1
v -0.1 0.3 0.1
v 0.2 0.3 0.1
v -0.1 0.3 0
v 0 0.3 0
v 0.1 0.3 0
v 0.2 0.3 0
v -0.1 0.3 -0.1
v 0 0.3 -0.1
v 0.1 0.3 -0.1
v 0.2 0.3 -0.1
v -0.1 0.3 -0.2
v 0.2 0.3 -0.2
v -0.2 0.5 0
v 0 0.5 0
v 0.1 0.5 0
v 0.3 0.5 0
v -0.2 0.5 -0.1
v 0 0.5 -0.1
v 0.1 0.5 -0.1
v 0.3 0.5 -0.1

# faces
f 3/2/1 2/2/1 1/2/1
f 4/2/1 2/2/1 3/2/1
f 5/1/1 4/1/1 3/1/1
f 6/1/1 4/1/1 5/1/1
f 9/4/1 8/4/1 7/4/1
f 10/4/1 8/4/1 9/4/1
f 11/3/1 10/3/1 9/3/1
f 12/4/1 8/4/1 10/4/1
f 12/3/1 10/3/1 11/3/1
f 13/4/1 8/4/1 12/4/1
f 14/4/1 12/4/1 11/4/1
f 15/4/1 12/4/1 14/4/1
f 16/4/1 8/4/1 13/4/1
f 17/4/1 8/4/1 16/4/1
f 20/1/1 19/1/1 18/1/1
f 21/1/1 19/1/1 20/1/1
f 22/1/2 23/1/2 24/1/2
f 24/1/2 23/1/2 25/1/2
f 26/4/2 27/4/2 28/4/2
f 28/4/2 27/4/2 29/4/2
f 28/3/2 29/3/2 30/3/2
f 29/4/2 27/4/2 31/4/2
f 30/3/2 29/3/2 31/3/2
f 31/4/2 27/4/2 32/4/2
f 30/4/2 31/4/2 33/4/2
f 33/4/2 31/4/2 34/4/2
f 32/4/2 27/4/2 35/4/2
f 35/4/2 27/4/2 36/4/2
f 37/2/2 38/2/2 39/2/2
f 39/2/2 38/2/2 40/2/2
f 39/1/2 40/1/2 41/1/2
f 41/1/2 40/1/2 42/1/2
f 47/4/3 44/4/3 43/4/3
f 47/3/3 45/3/3 44/3/3
f 48/4/3 46/4/3 45/4/3
f 48/3/3 45/3/3 47/3/3
f 49/4/3 47/4/3 43/4/3
f 49/4/3 48/4/3 47/4/3
f 50/4/3 46/4/3 48/4/3
f 50/4/3 48/4/3 49/4/3
f 51/4/3 49/4/3 43/4/3
f 52/3/3 50/3/3 49/3/3
f 52/4/3 49/4/3 51/4/3
f 53/4/3 46/4/3 50/4/3
f 53/3/3 50/3/3 52/3/3
f 54/4/3 46/4/3 53/4/3
f 58/2/3 56/2/3 55/2/3
f 59/2/3 56/2/3 58/2/3
f 60/1/3 57/1/3 56/1/3
f 60/2/3 56/2/3 59/2/3
f 61/1/3 60/1/3 59/1/3
f 62/1/3 57/1/3 60/1/3
f 62/1/3 60/1/3 61/1/3
f 66/1/3 64/1/3 63/1/3
f 67/1/3 64/1/3 66/1/3
f 68/2/3 66/2/3 65/2/3
f 68/2/3 67/2/3 66/2/3
f 69/1/3 64/1/3 67/1/3
f 69/2/3 67/2/3 68/2/3
f 70/1/3 64/1/3 69/1/3
f 71/2/4 72/2/4 74/2/4
f 74/2/4 72/2/4 75/2/4
f 72/1/4 73/1/4 76/1/4
f 75/2/4 72/2/4 76/2/4
f 75/1/4 76/1/4 77/1/4
f 76/1/4 73/1/4 78/1/4
f 77/1/4 76/1/4 78/1/4
f 79/1/4 80/1/4 82/1/4
f 82/1/4 80/1/4 83/1/4
f 81/2/4 82/2/4 84/2/4
f 82/2/4 83/2/4 84/2/4
f 83/1/4 80/1/4 85/1/4
f 84/2/4 83/2/4 85/2/4
f 85/1/4 80/1/4 86/1/4
f 87/4/4 88/4/4 89/4/4
f 89/4/4 88/4/4 90/4/4
f 93/4/5 92/4/5 91/4/5
f 94/4/5 92/4/5 93/4/5
f 99/2/5 96/2/5 95/2/5
f 100/2/5 96/2/5 99/2/5
f 101/2/5 98/2/5 97/2/5
f 102/2/5 98/2/5 101/2/5
f 103/4/6 104/4/6 105/4/6
f 105/4/6 104/4/6 106/4/6
f 106/4/6 104/4/6 107/4/6
f 107/4/6 104/4/6 108/4/6
f 106/4/6 107/4/6 110/4/6
f 110/4/6 107/4/6 111/4/6
f 109/4/6 110/4/6 113/4/6
f 111/4/6 112/4/6 113/4/6
f 110/4/6 111/4/6 113/4/6
f 113/4/6 112/4/6 114/4/6
f 115/1/6 116/1/6 119/1/6
f 119/1/6 116/1/6 120/1/6
f 117/1/6 118/1/6 121/1/6
f 121/1/6 118/1/6 122/1/6
